<?xml version="1.0" encoding="UTF-8" standalone="no"?>
<svg width="22px" height="22px" viewBox="0 0 22 22" version="1.1" xmlns="http://www.w3.org/2000/svg" xmlns:xlink="http://www.w3.org/1999/xlink">
    <!-- Generator: Sketch 3.7 (28169) - http://www.bohemiancoding.com/sketch -->
    <title>feedback-icon</title>
    <desc>Created with Sketch.</desc>
    <defs></defs>
    <g id="Responsive" stroke="none" stroke-width="1" fill="none" fill-rule="evenodd">
        <g id="Pairing-Board---Mobile" transform="translate(-296.000000, -35.000000)" fill="#8E9196">
            <g id="feedback-icon" transform="translate(296.000000, 35.000000)">
                <g id="Group" transform="translate(0.000000, 0.000000)">
                    <path d="M21.9140397,18.9350266 L21.8761589,0.298858447 C21.8734365,0.211150289 21.8334198,0.128832106 21.7662635,0.0727932873 C21.6991073,0.0167544684 21.6112669,-0.00761827906 21.5250331,0.00585996956 L3.97456954,5.64754566 C3.85773184,5.68578708 3.77730569,5.79361361 3.77350993,5.91710426 L3.80993377,13.4193303 C3.80780128,13.549448 3.90191376,13.6610007 4.02993377,13.6800989 L21.5745695,19.2060502 C21.6575474,19.2343509 21.7491396,19.2183496 21.817761,19.1635642 C21.8863824,19.1087787 21.9226434,19.0227056 21.9140397,18.9350266 L21.9140397,18.9350266 Z" id="Shape"></path>
                    <path d="M14.393245,18.5160388 C14.3384644,18.3195884 14.1871438,18.1652197 13.9925828,18.1073059 L13.169404,17.8494673 C13.1156111,17.8327665 13.0596096,17.8243693 13.0033113,17.8245624 C12.8152319,17.8266304 12.639164,17.9178654 12.5283444,18.0706811 L12.5166887,18.088261 L12.5064901,18.1073059 C12.3795806,18.3394589 12.2088408,18.5444818 12.0038411,18.7108828 C11.5681194,19.0858311 11.0125605,19.2902439 10.4390728,19.2866248 L10.2540397,19.2866248 C10.0827749,19.2731494 9.91414798,19.2361819 9.75284768,19.1767504 C8.69693843,18.8581539 8.00163316,17.8462544 8.07880795,16.740468 C8.09749755,16.4772856 7.92940451,16.2372275 7.67668874,16.166191 L6.82582781,15.8995624 C6.76879685,15.8813954 6.70936017,15.8720108 6.64953642,15.8717275 C6.37889922,15.8668487 6.14595076,16.0629804 6.10317881,16.3317352 C6.09345677,16.3751772 6.08664238,16.4192257 6.08278146,16.4635845 L6.08278146,16.5002093 L6.07112583,16.5368341 L6.07112583,16.5749239 C5.92410196,18.611251 7.19753076,20.4790372 9.1394702,21.0753805 C9.46001394,21.1802997 9.79337381,21.2404383 10.1301987,21.2541096 C10.2511258,21.2643645 10.3735099,21.2702245 10.495894,21.2702245 L10.495894,21.2702245 C11.5279512,21.262118 12.5245165,20.8904264 13.3121854,20.219825 C13.7268706,19.859585 14.0699574,19.423638 14.3233113,18.9350266 C14.4090546,18.8134402 14.434814,18.6591103 14.393245,18.5160388 L14.393245,18.5160388 Z" id="Shape"></path>
                    <path d="M2.32966887,6.08557839 C2.33025868,6.00924389 2.29914663,5.93612371 2.24383072,5.88383987 C2.18851482,5.83155603 2.11401224,5.80485068 2.03827815,5.81015982 L0.273907285,5.81015982 C0.122073839,5.82416461 0.00451854245,5.94991345 1.04212935e-13,6.1031583 L0.0145695364,13.3900304 C0.028497483,13.5427016 0.153556309,13.6609055 0.305960265,13.665449 L2.04264901,13.658124 C2.11762428,13.6558285 2.18861735,13.6236604 2.23999247,13.5687044 C2.29136758,13.5137485 2.31891094,13.4405123 2.31655629,13.3651256 L2.32966887,6.08557839 Z" id="Shape"></path>
                </g>
            </g>
        </g>
    </g>
</svg>