<?xml version="1.0" encoding="UTF-8" standalone="no"?>
<svg width="185px" height="46px" viewBox="0 0 185 46" version="1.1" xmlns="http://www.w3.org/2000/svg" xmlns:xlink="http://www.w3.org/1999/xlink">
    <!-- Generator: sketchtool 3.6.1 (26313) - http://www.bohemiancoding.com/sketch -->
    <title>logo / color 1</title>
    <desc>Created with sketchtool.</desc>
    <defs></defs>
    <g id="Visual-Design" stroke="none" stroke-width="1" fill="none" fill-rule="evenodd">
        <g id="Pairing-Board" transform="translate(-50.000000, -16.000000)">
            <g id="Header">
                <g id="logo-/-color-1" transform="translate(49.000000, 16.000000)">
                    <g id="icon" transform="translate(25.352814, 23.500000) scale(-1, 1) translate(-25.352814, -23.500000) translate(0.852814, 0.000000)">
                        <path d="M24.4744589,32.8995671 C30.7011321,32.9044102 36.7316502,30.721802 41.5128788,26.7329004 C42.0334416,27.7820346 42.5940476,28.8071429 43.1426407,29.8282468 C32.1650882,38.5410461 16.6207204,38.5028249 5.68614719,29.7361472 C6.11861472,28.5909091 6.54307359,27.4496753 6.92748918,26.2964286 C11.7797658,30.5565861 18.0174075,32.9038867 24.4744589,32.8995671 L24.4744589,32.8995671 Z" id="Shape" fill="#58595B"></path>
                        <path d="M20.2659091,14.0632035 L22.3161255,14.0632035 L22.3161255,14.1472944 C22.3161255,9.66645022 20.7704545,7.40800866 17.7912338,5.48593074 L17.6470779,5.48593074 L17.6470779,16.1975108 C19.2207792,16.1534632 19.6812771,15.3566017 20.2659091,14.0632035 L20.2659091,14.0632035 Z" id="Shape" fill="#F3736C"></path>
                        <path d="M15.7850649,22.7806277 C14.8760823,16.930303 6.45898268,10.3672078 13.3103896,3.91623377 L2.56677489,0.312337662 C1.97012987,1.73787879 2.47867965,2.45465368 4.36872294,3.91623377 L0.044047619,3.91623377 C0.044047619,5.95844156 1.8780303,7.03961039 3.56385281,7.61623377 C0.248268398,10.819697 0.760822511,13.3944805 0.760822511,26.5967532 L0.760822511,46.0497835 C6.68722944,40.9482684 17.3187229,32.5431818 15.7970779,22.7646104 L15.7970779,22.7646104 L15.7850649,22.7806277 Z" id="Shape" fill="#BDD63E"></path>
                        <path id="Shape" fill="#BDD63E" d="M13.8549784,18.463961 C13.8549784,18.543961 13.9049784,18.523961 13.8549784,18.463961 L13.8549784,18.463961 L13.8549784,18.463961 Z"></path>
                        <circle id="Oval" fill="#3E3E3F" cx="14.824026" cy="8.00064935" r="1.55768398"></circle>
                        <path d="M28.5668831,14.0632035 L26.5166667,14.0632035 L26.5166667,14.1472944 C26.5166667,9.66645022 28.0623377,7.40800866 31.0415584,5.48593074 L31.1897186,5.48593074 L31.1897186,16.1975108 C29.6320346,16.1534632 29.1515152,15.3566017 28.5668831,14.0632035 L28.5668831,14.0632035 Z" id="Shape" fill="#F3736C"></path>
                        <path d="M33.0517316,22.7806277 C33.9607143,16.930303 42.3778139,10.3672078 35.5264069,3.91623377 L46.2700216,0.312337662 C46.8666667,1.73787879 46.3581169,2.45465368 44.4680736,3.91623377 L48.7927489,3.91623377 C48.7927489,5.95844156 46.9587662,7.03961039 45.2729437,7.61623377 C48.5885281,10.819697 48.075974,13.3944805 48.075974,26.5967532 L48.075974,46.0497835 C42.1495671,40.9482684 31.5180736,32.5431818 33.0397186,22.7646104 L33.0397186,22.7646104 L33.0517316,22.7806277 Z" id="Shape" fill="#89D4E5"></path>
                        <path id="Shape" fill="#89D4E5" d="M34.9911376,18.463961 C34.9911376,18.543961 34.9411376,18.523961 34.9911376,18.463961 L34.9911376,18.463961 L34.9911376,18.463961 Z"></path>
                        <circle id="Oval" fill="#3E3E3F" cx="34.0087662" cy="8.00064935" r="1.55768398"></circle>
                    </g>
                    <path d="M66.0703463,43.475 C62.8668831,43.475 61.2651515,43.122619 61.2651515,42.4178571 L61.2651515,8.16883117 C61.2651515,6.97020202 61.811075,6.37088745 62.9029221,6.37088745 L72.2049784,6.37088745 C77.4186147,6.37088745 81.1800144,7.4453824 83.4891775,9.59437229 C85.7983405,11.7433622 86.9529221,14.8613997 86.9529221,18.9484848 C86.9530794,22.3318539 85.7974195,25.6137585 83.677381,28.2505411 C82.5855339,29.6600649 80.9838023,30.7879509 78.8721861,31.6341991 C76.5100395,32.5239158 73.9998216,32.9547437 71.4761905,32.9035714 L71.4761905,42.3658009 C71.4761905,42.7875902 70.8088023,43.081241 69.474026,43.2467532 C68.3448766,43.3890286 67.208382,43.4652406 66.0703463,43.475 L66.0703463,43.475 Z M71.4761905,15.5688312 L71.4761905,23.9178571 L72.1649351,23.9178571 C73.315885,23.9494035 74.434169,23.5330975 75.2843074,22.7566017 C76.1305556,21.9824315 76.5536797,20.8905844 76.5536797,19.4810606 C76.5536797,18.0715368 76.2626984,17.067785 75.6807359,16.4698052 C75.0987734,15.8718254 74.0683261,15.5728355 72.5893939,15.5728355 L71.4761905,15.5728355 L71.4761905,15.5688312 Z" id="Shape" fill="#F3736C"></path>
                    <path d="M90.6969697,24.1821429 C89.7092352,22.4202381 89.215368,20.9840188 89.215368,19.8734848 C89.215368,18.7629509 89.5143579,18.0488456 90.1123377,17.7311688 C92.1251804,16.8555556 94.8854978,16.4177489 98.39329,16.4177489 C101.901082,16.4177489 104.377092,17.2373016 105.82132,18.8764069 C107.265548,20.5155123 107.987662,22.9381313 107.987662,26.1442641 L107.987662,34.4892857 L109.785606,34.4892857 C110.383586,34.4892857 110.850758,34.8416667 111.187121,35.5464286 C111.559894,36.4643417 111.730612,37.4517707 111.687662,38.4415584 C111.677989,39.7143375 111.360634,40.9658964 110.762662,42.0895022 C110.145996,43.2881313 109.309091,43.8874459 108.251948,43.8874459 C106.348557,43.8874459 104.816234,43.3762266 103.654978,42.3537879 C103.141579,41.9421026 102.730419,41.4171886 102.45368,40.8201299 C100.833261,42.8650072 98.3132035,43.8874459 94.8935065,43.8874459 C92.4340995,43.9367926 90.0697201,42.9380462 88.3904762,41.1404762 C86.6716291,39.4158951 85.7191234,37.0721539 85.747619,34.6374459 C85.7369408,28.8979076 89.167316,26.0281385 96.0387446,26.0281385 L98.9458874,26.0281385 L98.9458874,25.5035714 C98.9458874,24.5879149 98.7963925,23.9979437 98.4974026,23.733658 C98.1984127,23.4693723 97.5029942,23.3358947 96.4111472,23.3332251 C94.4820381,23.4162491 92.5668985,23.7007688 90.6969697,24.1821429 L90.6969697,24.1821429 Z M94.9255411,33.908658 C94.8796254,34.561149 95.1090822,35.2030471 95.5582251,35.6785714 C95.9900384,36.0862468 96.5663769,36.3052555 97.1599567,36.2872294 C97.8350638,36.2754989 98.4754195,35.9857452 98.9298701,35.4863636 L98.9298701,31.425974 L97.4482684,31.425974 C95.7691198,31.425974 94.9295455,32.2535354 94.9295455,33.908658 L94.9255411,33.908658 Z" id="Shape" fill="#F3736C"></path>
                    <path d="M124.161147,43.3188312 C124.161147,43.56443 122.559416,43.6872294 119.355952,43.6872294 C116.152489,43.6151515 114.550758,43.4736652 114.550758,43.2627706 L114.550758,25.7158009 L113.121212,25.7158009 C112.557937,25.7158009 112.108117,25.3727633 111.771753,24.6866883 C111.413028,23.8813456 111.241877,23.0050534 111.271212,22.1239177 C111.265873,18.3198052 112.391089,16.4177489 114.646861,16.4177489 C116.106618,16.3709149 117.527661,16.891964 118.611147,17.8713203 C119.600408,18.6869173 120.185209,19.8930689 120.212879,21.1748918 C120.902385,19.7880627 121.929642,18.5969404 123.200108,17.7111472 C124.308676,16.8974551 125.641377,16.4457631 127.016234,16.4177489 C129.058442,16.4177489 130.291775,16.9516595 130.716234,18.0194805 C130.8392,18.4212776 130.893354,18.840972 130.876407,19.2608225 C130.805917,20.2532244 130.638267,21.2363209 130.375866,22.1959957 C130.157001,23.2454655 129.808627,24.2636862 129.338745,25.2272727 C128.986364,25.8626263 128.775469,26.180303 128.706061,26.180303 C128.368941,26.0766326 128.041917,25.9426062 127.729004,25.7798701 C127.243862,25.5379385 126.712993,25.4014682 126.17132,25.3794372 C124.836544,25.3794372 124.169156,26.4365801 124.169156,28.5508658 L124.169156,43.3188312 L124.161147,43.3188312 Z" id="Shape" fill="#F3736C"></path>
                    <path d="M145.091775,43.3188312 C145.091775,43.56443 143.490043,43.6872294 140.28658,43.6872294 C137.083117,43.6151515 135.481385,43.4736652 135.481385,43.2627706 L135.481385,25.7158009 L134.055844,25.7158009 C133.492569,25.7158009 133.042749,25.3727633 132.706385,24.6866883 C132.34766,23.8813456 132.176509,23.0050534 132.205844,22.1239177 C132.197835,18.3198052 133.321717,16.4177489 135.577489,16.4177489 C137.039367,16.3681514 138.463441,16.8878236 139.549784,17.867316 C140.539045,18.6829129 141.123845,19.8890645 141.151515,21.1708874 C141.840877,19.7839626 142.868162,18.5928076 144.138745,17.7071429 C145.248901,16.894098 146.58308,16.4437776 147.958874,16.4177489 C150.003752,16.4177489 151.237085,16.9516595 151.658874,18.0194805 C151.782068,18.4212286 151.836227,18.8409618 151.819048,19.2608225 C151.748404,20.2532059 151.580757,21.2362875 151.318506,22.1959957 C151.097128,23.2458372 150.746057,24.2640755 150.273377,25.2272727 C149.920996,25.8626263 149.710101,26.180303 149.640693,26.180303 C149.303573,26.0766326 148.976549,25.9426062 148.663636,25.7798701 C148.178494,25.5379385 147.647625,25.4014682 147.105952,25.3794372 C145.771176,25.3794372 145.103788,26.4365801 145.103788,28.5508658 L145.103788,43.3188312 L145.091775,43.3188312 Z" id="Shape" fill="#F3736C"></path>
                    <path d="M164.120346,13.9831169 C164.120346,14.2313853 162.507937,14.3541847 159.283117,14.3515152 C156.058297,14.3488456 154.445887,14.2367244 154.445887,14.0151515 L154.445887,6.40692641 C154.445887,6.05454545 156.058297,5.87835498 159.283117,5.87835498 C162.507937,5.87835498 164.120346,5.98380231 164.120346,6.19469697 L164.120346,13.9630952 L164.120346,13.9831169 Z M164.120346,43.0545455 C164.120346,43.337518 162.507937,43.4790043 159.283117,43.4790043 C156.058297,43.4790043 154.445887,43.3562049 154.445887,43.1106061 L154.445887,17.1545455 C154.445887,16.9089466 156.058297,16.7861472 159.283117,16.7861472 C162.507937,16.7861472 164.120346,16.8902597 164.120346,17.0984848 L164.120346,43.0545455 L164.120346,43.0545455 Z" id="Shape" fill="#F3736C"></path>
                    <path d="M181.034632,43.0545455 C181.034632,43.4763348 179.554365,43.6872294 176.593831,43.6872294 C173.070022,43.5457431 171.308117,43.3161616 171.308117,42.9984848 L171.308117,24.2902597 L168.613203,24.2902597 C167.908442,24.2902597 167.556061,23.0742785 167.556061,20.642316 C167.56667,19.8636244 167.628201,19.0864604 167.74026,18.3158009 C167.863059,17.4001443 168.118001,16.942316 168.505087,16.942316 L171.308117,16.942316 L171.308117,12.2892857 C171.308117,11.5845238 172.796392,11.2321429 175.772944,11.2321429 C178.749495,11.2321429 180.237771,11.5137807 180.237771,12.0770563 L180.237771,15.4607143 L180.289827,16.942316 L184.798701,16.942316 C185.396681,16.942316 185.695671,18.1756494 185.695671,20.642316 C185.695671,23.1089827 185.396681,24.342316 184.798701,24.342316 L181.034632,24.342316 L181.034632,43.0545455 L181.034632,43.0545455 Z" id="Shape" fill="#F3736C"></path>
                </g>
            </g>
        </g>
    </g>
</svg>