<?xml version="1.0" encoding="UTF-8" standalone="no"?>
<svg width="432px" height="266px" viewBox="0 0 432 266" version="1.1" xmlns="http://www.w3.org/2000/svg" xmlns:xlink="http://www.w3.org/1999/xlink">
    <!-- Generator: sketchtool 3.6.1 (26313) - http://www.bohemiancoding.com/sketch -->
    <title>parrit talk</title>
    <desc>Created with sketchtool.</desc>
    <defs>
        <filter x="-50%" y="-50%" width="200%" height="200%" filterUnits="objectBoundingBox" id="filter-1">
            <feOffset dx="2" dy="4" in="SourceAlpha" result="shadowOffsetOuter1"></feOffset>
            <feGaussianBlur stdDeviation="0" in="shadowOffsetOuter1" result="shadowBlurOuter1"></feGaussianBlur>
            <feColorMatrix values="0 0 0 0 0.890196078   0 0 0 0 0.91372549   0 0 0 0 0.537254902  0 0 0 0.7 0" in="shadowBlurOuter1" type="matrix" result="shadowMatrixOuter1"></feColorMatrix>
            <feMerge>
                <feMergeNode in="shadowMatrixOuter1"></feMergeNode>
                <feMergeNode in="SourceGraphic"></feMergeNode>
            </feMerge>
        </filter>
    </defs>
    <g id="Visual-Design" stroke="none" stroke-width="1" fill="none" fill-rule="evenodd">
        <g id="Error-Page" transform="translate(-504.000000, -294.000000)">
            <g id="parrit-talk" transform="translate(505.000000, 295.000000)">
                <path d="M175.407998,227 C207.644595,227 263.795843,211.524069 263.795843,211.524069 L350.636068,220.83186 L322.278964,175.428011 C322.278964,175.428011 350.636068,136.34819 350.636068,113.5 C350.636068,50.8156809 272.183788,0 175.407998,0 C78.6322066,0 0.179927357,50.8156809 0.179927357,113.5 C0.179927357,176.184319 78.6322066,227 175.407998,227 Z" id="talk-bubble" stroke="#E3E989" fill="#FFFFFF" filter="url(#filter-1)"></path>
                <g id="parrit-head" transform="translate(397.500000, 225.000000) scale(-1, 1) translate(-397.500000, -225.000000) translate(364.000000, 185.000000)">
                    <path d="M53.44,14 L53,14 L53,44.1 C57.66,44.01 59.08,41.77 60.84,38.1 L66.97,38.1 C66.87,25.67 62.3,19.36 53.44,14 L53.44,14 Z" id="Shape" fill="#F3736C"></path>
                    <path d="M47.08,63.11 C44.36,46.67 19.18,28.18 39.68,10.11 C36.68,9.18 7.54,0 7.54,0 C5.76,4 7.28,6 12.93,10.14 L0,10.14 C0,15.88 5.49,18.92 10.52,20.54 C1.26,28.92 1.95,35.82 2.08,66.89 C14.1453213,77.3840394 30.4340556,81.6117063 46.08,78.31 C47.552484,73.3830641 47.8943052,68.1873825 47.08,63.11 L47.08,63.11 Z M41.31,50.98 C41.302216,50.9992426 41.302216,51.0207574 41.31,51.04 C41.302216,51.0207574 41.302216,50.9992426 41.31,50.98 L41.31,50.98 Z" id="Shape" fill="#89D4E5"></path>
                    <ellipse id="Oval" fill="#000000" cx="44.66" cy="21.38" rx="4.66" ry="4.38"></ellipse>
                </g>
            </g>
        </g>
    </g>
</svg>