<?xml version="1.0" encoding="UTF-8" standalone="no"?>
<svg width="80px" height="80px" viewBox="0 0 80 80" version="1.1" xmlns="http://www.w3.org/2000/svg" xmlns:xlink="http://www.w3.org/1999/xlink">
    <!-- Generator: sketchtool 3.6.1 (26313) - http://www.bohemiancoding.com/sketch -->
    <title>add board</title>
    <desc>Created with sketchtool.</desc>
    <defs></defs>
    <g id="Visual-Design" stroke="none" stroke-width="1" fill="none" fill-rule="evenodd">
        <g id="Pairing-Board---Add-Board" transform="translate(-1309.000000, -872.000000)">
            <g id="add-board" transform="translate(1309.000000, 872.000000)">
                <g id="Delete-Copy" stroke="#8E9196" stroke-dasharray="5">
                    <rect id="Rectangle-1-Copy-8" x="0" y="0" width="80" height="80" rx="4"></rect>
                </g>
                <g transform="translate(21.265823, 21.265823)" id="Shape">
                    <path d="M31.7020288,31.5544304 L38.301786,31.5544304 L38.301786,0.200312121 L6.95293914,0.200312121 L6.95293914,6.80006936 L0.353181897,6.80006936 L0.353181897,38.1541876 L31.7073002,38.1541876 L31.7073002,31.5544304 L31.7020288,31.5544304 Z M8.59760707,1.85025143 L36.6518467,1.85025143 L36.6518467,29.9044911 L8.60287845,29.9044911 L8.60287845,1.85025143 L8.59760707,1.85025143 Z" fill="#89D4E5"></path>
                    <path d="M30.8955089,13.0150165 L25.5187099,13.0150165 L25.5187099,7.63821744 C25.4545789,6.18108795 24.2545865,5.03274786 22.7960465,5.03274786 C21.3375064,5.03274786 20.137514,6.18108795 20.073383,7.63821744 L20.073383,13.0150165 L14.696584,13.0150165 C13.6952912,12.9709477 12.7506096,13.4800308 12.2368072,14.3405751 C11.7230048,15.2011194 11.7230048,16.2742404 12.2368072,17.1347847 C12.7506096,17.995329 13.6952912,18.5044121 14.696584,18.4603433 L20.073383,18.4603433 L20.073383,23.8371424 C20.137514,25.2942719 21.3375064,26.4426119 22.7960465,26.4426119 C24.2545865,26.4426119 25.4545789,25.2942719 25.5187099,23.8371424 L25.5187099,18.4498006 L30.8955089,18.4498006 C31.8948908,18.4938279 32.8377889,17.9857405 33.3506239,17.1268442 C33.863459,16.2679479 33.863459,15.1968692 33.3506239,14.3379729 C32.8377889,13.4790766 31.8948908,12.9709891 30.8955089,13.0150165 L30.8955089,13.0150165 Z" fill="#BDD63E"></path>
                </g>
            </g>
        </g>
    </g>
</svg>