<?xml version="1.0" encoding="UTF-8" standalone="no"?>
<svg width="22px" height="22px" viewBox="0 0 22 22" version="1.1" xmlns="http://www.w3.org/2000/svg" xmlns:xlink="http://www.w3.org/1999/xlink">
    <!-- Generator: sketchtool 3.6.1 (26313) - http://www.bohemiancoding.com/sketch -->
    <title>history</title>
    <desc>Created with sketchtool.</desc>
    <defs></defs>
    <g id="Responsive" stroke="none" stroke-width="1" fill="none" fill-rule="evenodd">
        <g id="Pairing-Board---Mobile" transform="translate(-330.000000, -35.000000)">
            <g id="history" transform="translate(330.000000, 35.000000)">
                <path d="M11.0505405,21.7621622 C5.1067625,21.7621622 0.288378378,16.943778 0.288378378,11 C0.288378378,5.05622196 5.1067625,0.237837838 11.0505405,0.237837838 C16.9943186,0.237837838 21.8127027,5.05622196 21.8127027,11 C21.8061489,16.9410612 16.9916018,21.7556083 11.0505405,21.7621622 L11.0505405,21.7621622 Z" id="Shape" fill="#8E9196"></path>
                <path d="M13.8748649,14.6864865 C13.6790007,14.6871663 13.49085,14.6101956 13.3516216,14.4724324 L10.3786486,11.5291892 C10.2375218,11.389295 10.1582913,11.1987134 10.1586486,11 L10.1586486,4.72702703 C10.1586486,4.31654512 10.49141,3.98378378 10.9018919,3.98378378 C11.3123738,3.98378378 11.6451351,4.31654512 11.6451351,4.72702703 L11.6451351,10.7027027 L14.3981081,13.4289189 C14.6025647,13.6421158 14.6613638,13.9561524 14.5478895,14.2288775 C14.4344152,14.5016026 14.1702086,14.6812443 13.8748649,14.6864865 L13.8748649,14.6864865 Z" id="Shape" fill="#E8F7FA"></path>
            </g>
        </g>
    </g>
</svg>