<svg id="Parrit_Logo_-_color_1" data-name="Parrit Logo - color 1" xmlns="http://www.w3.org/2000/svg" viewBox="0 0 408.31 114.25"><defs><style>.cls-1{fill:#f3736c;}.cls-2{fill:#58595b;}.cls-3{fill:#bdd63e;}.cls-4{fill:#3e3e3f;}.cls-5{fill:#89d4e5;}</style></defs><title>Parrit-Logo-2016-RGB</title><path class="cls-1" d="M209.49,114.5q-10,0-10-2.2V41q0-3.74,3.41-3.74h19.36q16.28,0,23.48,6.71t7.21,19.47a30.89,30.89,0,0,1-6.82,19.36,23.18,23.18,0,0,1-10,7,41.3,41.3,0,0,1-15.4,2.64v19.69q0,1.32-4.12,1.81A60.79,60.79,0,0,1,209.49,114.5Zm11.22-58.08V73.8h1.43a9.25,9.25,0,0,0,6.49-2.42,8.78,8.78,0,0,0,2.64-6.82q0-4.4-1.81-6.27T223,56.42h-2.31Z" transform="translate(-50.11 -27.77)"/><path class="cls-1" d="M260.75,74.35q-3.08-5.5-3.08-9t1.87-4.46q6.27-2.75,17.21-2.75t15.46,5.12q4.51,5.11,4.51,15.13V95.8h3.74a3.22,3.22,0,0,1,2.92,2.2,14.36,14.36,0,0,1,1,6,16.43,16.43,0,0,1-1.92,7.59q-1.93,3.74-5.23,3.74a14,14,0,0,1-9.57-3.19,8.87,8.87,0,0,1-2.53-3.19q-5.06,6.38-15.73,6.38a18,18,0,0,1-13.53-5.72,18.86,18.86,0,0,1-5.5-13.53q0-17.93,21.45-17.93h6V77.1q0-2.86-.94-3.69t-4.34-.82A57.67,57.67,0,0,0,260.75,74.35Zm8.8,20.24a4.87,4.87,0,0,0,1.32,3.69,4.65,4.65,0,0,0,3.35,1.26,5.1,5.1,0,0,0,3.69-1.65V89.42h-3.08Q269.55,89.42,269.55,94.59Z" transform="translate(-50.11 -27.77)"/><path class="cls-1" d="M330.38,114.17q0,0.77-10,.77-10-.22-10-0.88V77.54h-3q-1.76,0-2.8-2.14a12.11,12.11,0,0,1-1-5.34q0-11.88,7-11.88a11.75,11.75,0,0,1,8.25,3,9.13,9.13,0,0,1,3.3,6.88,19.21,19.21,0,0,1,6.21-7.2,13.9,13.9,0,0,1,8-2.7q6.38,0,7.7,3.3a7.76,7.76,0,0,1,.33,2.58,31.68,31.68,0,0,1-1,6.1,26.94,26.94,0,0,1-2.15,6.38,6.28,6.28,0,0,1-1.32,2,12.11,12.11,0,0,1-2-.83,8,8,0,0,0-3.25-.82q-4.18,0-4.18,6.6v30.69Z" transform="translate(-50.11 -27.77)"/><path class="cls-1" d="M373.94,114.17q0,0.77-10,.77-10-.22-10-0.88V77.54h-3q-1.76,0-2.8-2.14a12.11,12.11,0,0,1-1-5.34q0-11.88,7-11.88a11.75,11.75,0,0,1,8.25,3,9.13,9.13,0,0,1,3.3,6.88,19.21,19.21,0,0,1,6.21-7.2,13.9,13.9,0,0,1,8-2.7q6.38,0,7.7,3.3a7.73,7.73,0,0,1,.33,2.58,31.68,31.68,0,0,1-1,6.1,26.94,26.94,0,0,1-2.14,6.38,6.27,6.27,0,0,1-1.32,2,12.14,12.14,0,0,1-2-.83,8,8,0,0,0-3.25-.82q-4.18,0-4.18,6.6v30.69Z" transform="translate(-50.11 -27.77)"/><path class="cls-1" d="M413.54,53.12q0,0.77-10.07.77t-10.06-.66V37.39q0-1.1,10.06-1.1T413.54,37V53.12Zm0,60.5q0,0.88-10.07.88t-10.06-.77v-54q0-.77,10.06-0.77t10.07,0.66v54Z" transform="translate(-50.11 -27.77)"/><path class="cls-1" d="M448.73,113.62q0,1.32-9.24,1.32-11-.44-11-1.43V74.57h-5.61q-2.2,0-2.2-7.59a37.06,37.06,0,0,1,.38-4.84q0.38-2.86,1.59-2.86h5.83V49.6q0-2.2,9.29-2.2t9.29,1.76v7l0.11,3.08h9.35q1.87,0,1.87,7.7t-1.87,7.7h-7.81v38.94Z" transform="translate(-50.11 -27.77)"/><path class="cls-2" d="M199.29,140.73v-9.94h4.21a2.82,2.82,0,0,1,1.27.29,3.27,3.27,0,0,1,1,.76,3.56,3.56,0,0,1,.66,1.06,3.19,3.19,0,0,1,.24,1.2,3.47,3.47,0,0,1-.22,1.23,3.39,3.39,0,0,1-.63,1.06,3.09,3.09,0,0,1-1,.74,2.84,2.84,0,0,1-1.26.28h-2.35v3.33h-1.93Zm1.93-5h2.24a1.1,1.1,0,0,0,.89-0.43,1.79,1.79,0,0,0,.36-1.18,1.92,1.92,0,0,0-.11-0.68,1.65,1.65,0,0,0-.29-0.51,1.18,1.18,0,0,0-.43-0.31,1.25,1.25,0,0,0-.5-0.1h-2.16v3.22Z" transform="translate(-50.11 -27.77)"/><path class="cls-2" d="M208.22,140.73l3.92-9.94h1.57l3.91,9.94h-2l-0.91-2.48h-3.49l-0.91,2.48h-2Zm4.7-7.85-1.43,4h2.81Z" transform="translate(-50.11 -27.77)"/><path class="cls-2" d="M220.64,140.73v-9.93h1.93v9.93h-1.93Z" transform="translate(-50.11 -27.77)"/><path class="cls-2" d="M226.6,140.73v-9.94H231a2.82,2.82,0,0,1,1.27.29,3.29,3.29,0,0,1,1,.76,3.58,3.58,0,0,1,.66,1.06,3.21,3.21,0,0,1,.24,1.2,3.31,3.31,0,0,1-.48,1.76,2.77,2.77,0,0,1-1.31,1.14l2.34,3.74h-2.18l-2.09-3.33h-1.9v3.33H226.6Zm1.93-5H231a1,1,0,0,0,.5-0.13,1.27,1.27,0,0,0,.4-0.34,1.7,1.7,0,0,0,.27-0.51,2,2,0,0,0,.1-0.63,1.8,1.8,0,0,0-.11-0.64,1.69,1.69,0,0,0-.3-0.51,1.37,1.37,0,0,0-.43-0.34,1.13,1.13,0,0,0-.5-0.12h-2.34v3.22Z" transform="translate(-50.11 -27.77)"/><path class="cls-2" d="M243.31,140.73v-9.94h4.4a2.82,2.82,0,0,1,1.27.29,3.29,3.29,0,0,1,1,.76,3.58,3.58,0,0,1,.66,1.06,3.21,3.21,0,0,1,.24,1.2,3.31,3.31,0,0,1-.48,1.76,2.77,2.77,0,0,1-1.31,1.14l2.34,3.74h-2.18l-2.09-3.33h-1.9v3.33h-1.93Zm1.93-5h2.42a1,1,0,0,0,.5-0.13,1.27,1.27,0,0,0,.4-0.34,1.7,1.7,0,0,0,.27-0.51,2,2,0,0,0,.1-0.63,1.8,1.8,0,0,0-.11-0.64,1.69,1.69,0,0,0-.3-0.51,1.37,1.37,0,0,0-.43-0.34,1.13,1.13,0,0,0-.5-0.12h-2.34v3.22Z" transform="translate(-50.11 -27.77)"/><path class="cls-2" d="M258.72,140.8a4.28,4.28,0,0,1-1.92-.43,4.76,4.76,0,0,1-1.49-1.13,5.1,5.1,0,0,1-1-1.62,5.34,5.34,0,0,1-.34-1.86,5.24,5.24,0,0,1,1.35-3.51,4.79,4.79,0,0,1,1.5-1.11,4.34,4.34,0,0,1,1.89-.41,4.17,4.17,0,0,1,1.92.44,4.82,4.82,0,0,1,1.48,1.15,5.41,5.41,0,0,1,1.29,3.47,5.11,5.11,0,0,1-.36,1.9,5.19,5.19,0,0,1-1,1.6,4.76,4.76,0,0,1-1.5,1.11A4.34,4.34,0,0,1,258.72,140.8Zm-2.76-5a4.13,4.13,0,0,0,.19,1.25,3.39,3.39,0,0,0,.55,1.06,2.75,2.75,0,0,0,.88.74,2.43,2.43,0,0,0,1.18.28,2.37,2.37,0,0,0,1.18-.29,2.7,2.7,0,0,0,.86-0.76,3.56,3.56,0,0,0,.53-1.07,4.1,4.1,0,0,0,.18-1.21,4,4,0,0,0-.2-1.25,3.48,3.48,0,0,0-.55-1.06,2.69,2.69,0,0,0-.87-0.74,2.42,2.42,0,0,0-1.16-.27,2.38,2.38,0,0,0-1.18.29,2.81,2.81,0,0,0-.87.76,3.36,3.36,0,0,0-.54,1.06A4.13,4.13,0,0,0,256,135.76Z" transform="translate(-50.11 -27.77)"/><path class="cls-2" d="M274,132.49h-3.16v8.25h-1.93v-8.25h-3.18v-1.69H274v1.69Z" transform="translate(-50.11 -27.77)"/><path class="cls-2" d="M275.28,140.73l3.92-9.94h1.57l3.91,9.94h-2l-0.91-2.48h-3.49l-0.91,2.48h-2Zm4.7-7.85-1.43,4h2.81Z" transform="translate(-50.11 -27.77)"/><path class="cls-2" d="M294.21,132.49H291v8.25h-1.93v-8.25h-3.18v-1.69h8.27v1.69Z" transform="translate(-50.11 -27.77)"/><path class="cls-2" d="M297.41,140.73v-9.93h1.93v9.93h-1.93Z" transform="translate(-50.11 -27.77)"/><path class="cls-2" d="M307.51,140.8a4.28,4.28,0,0,1-1.92-.43,4.76,4.76,0,0,1-1.49-1.13,5.1,5.1,0,0,1-1-1.62,5.34,5.34,0,0,1-.34-1.86,5.24,5.24,0,0,1,1.35-3.51,4.79,4.79,0,0,1,1.5-1.11,4.34,4.34,0,0,1,1.89-.41,4.17,4.17,0,0,1,1.92.44,4.82,4.82,0,0,1,1.48,1.15,5.41,5.41,0,0,1,1.29,3.47,5.11,5.11,0,0,1-.36,1.9,5.19,5.19,0,0,1-1,1.6,4.76,4.76,0,0,1-1.5,1.11A4.34,4.34,0,0,1,307.51,140.8Zm-2.76-5a4.13,4.13,0,0,0,.19,1.25,3.39,3.39,0,0,0,.55,1.06,2.75,2.75,0,0,0,.88.74,2.43,2.43,0,0,0,1.18.28,2.37,2.37,0,0,0,1.18-.29,2.7,2.7,0,0,0,.86-0.76,3.56,3.56,0,0,0,.53-1.07,4.1,4.1,0,0,0,.18-1.21,4,4,0,0,0-.2-1.25,3.48,3.48,0,0,0-.55-1.06,2.69,2.69,0,0,0-.87-0.74,2.42,2.42,0,0,0-1.16-.27,2.38,2.38,0,0,0-1.18.29,2.81,2.81,0,0,0-.87.76,3.36,3.36,0,0,0-.54,1.06A4.13,4.13,0,0,0,304.75,135.76Z" transform="translate(-50.11 -27.77)"/><path class="cls-2" d="M317.63,134.36v6.37H315.7v-9.94h1.5l5.18,6.52v-6.51h1.93v9.93h-1.57Z" transform="translate(-50.11 -27.77)"/><path class="cls-2" d="M341.75,140.73v-6.58l-2.56,4.9h-1l-2.56-4.9v6.58h-1.93v-9.94h2.07l2.94,5.66,3-5.66h2.06v9.94h-1.93Z" transform="translate(-50.11 -27.77)"/><path class="cls-2" d="M346.71,140.73l3.92-9.94h1.57l3.91,9.94h-2l-0.91-2.48h-3.49l-0.91,2.48h-2Zm4.7-7.85-1.43,4h2.81Z" transform="translate(-50.11 -27.77)"/><path class="cls-2" d="M361.06,134.36v6.37h-1.93v-9.94h1.5l5.18,6.52v-6.51h1.93v9.93h-1.57Z" transform="translate(-50.11 -27.77)"/><path class="cls-2" d="M370.76,140.73l3.92-9.94h1.57l3.91,9.94h-2l-0.91-2.48h-3.49l-0.91,2.48h-2Zm4.7-7.85-1.43,4h2.81Z" transform="translate(-50.11 -27.77)"/><path class="cls-2" d="M389.84,139.61a3.58,3.58,0,0,1-2.65,1.19,4,4,0,0,1-1.79-.42,4.78,4.78,0,0,1-1.46-1.13,5.36,5.36,0,0,1-1-1.63,5.27,5.27,0,0,1-.36-1.92,5.18,5.18,0,0,1,.36-1.93,4.93,4.93,0,0,1,1-1.58,4.8,4.8,0,0,1,1.5-1.08,4.75,4.75,0,0,1,4.19.19,3.78,3.78,0,0,1,1.46,1.58L389.66,134a2.67,2.67,0,0,0-1-1.13,2.63,2.63,0,0,0-1.41-.39,2.32,2.32,0,0,0-1.11.27,2.58,2.58,0,0,0-.85.73,3.59,3.59,0,0,0-.55,1.06,4.11,4.11,0,0,0-.2,1.27,4,4,0,0,0,.21,1.31,3.27,3.27,0,0,0,.59,1.06,2.82,2.82,0,0,0,.89.71,2.46,2.46,0,0,0,1.13.26,3.18,3.18,0,0,0,2.48-1.36V137h-2v-1.41h3.6v5.11h-1.6v-1.12Z" transform="translate(-50.11 -27.77)"/><path class="cls-2" d="M402,139v1.69h-6.9v-9.94h6.78v1.69H397v2.39h4.19v1.57H397V139h5Z" transform="translate(-50.11 -27.77)"/><path class="cls-2" d="M413.58,140.73v-6.58l-2.56,4.9h-1l-2.56-4.9v6.58h-1.93v-9.94h2.07l2.94,5.66,3-5.66h2.06v9.94h-1.93Z" transform="translate(-50.11 -27.77)"/><path class="cls-2" d="M426.45,139v1.69h-6.9v-9.94h6.78v1.69h-4.84v2.39h4.19v1.57h-4.19V139h5Z" transform="translate(-50.11 -27.77)"/><path class="cls-2" d="M431.9,134.36v6.37H430v-9.94h1.5l5.18,6.52v-6.51h1.93v9.93H437Z" transform="translate(-50.11 -27.77)"/><path class="cls-2" d="M450,132.49h-3.16v8.25h-1.93v-8.25h-3.18v-1.69H450v1.69Z" transform="translate(-50.11 -27.77)"/><path class="cls-2" d="M110.83,109.15A66.24,66.24,0,0,1,86,104.33a57,57,0,0,1-4.3,7.51,74.88,74.88,0,0,0,58.5-.09,56.73,56.73,0,0,1-4.28-7.52A66.15,66.15,0,0,1,110.83,109.15Z" transform="translate(-50.11 -27.77)"/><path class="cls-1" d="M127.88,67.41V40.66h-0.37c-7.39,4.77-11.24,10.38-11.29,21.43h5.12C122.8,65.34,124,67.33,127.88,67.41Z" transform="translate(-50.11 -27.77)"/><path class="cls-1" d="M116.22,62.11v0.21c0-.07,0-0.14,0-0.21h0Z" transform="translate(-50.11 -27.77)"/><path class="cls-3" d="M132.54,83.83v0Z" transform="translate(-50.11 -27.77)"/><path class="cls-3" d="M132.56,83.74h0Z" transform="translate(-50.11 -27.77)"/><path class="cls-3" d="M132.54,83.87v0Z" transform="translate(-50.11 -27.77)"/><path class="cls-3" d="M163.06,46c4.21-1.44,8.79-4.14,8.79-9.24H161c4.72-3.65,6-5.45,4.5-9l-26.83,9c17.11,16.07-3.91,32.51-6.18,47.11-1.11,7.12.37,13.94,3.38,20.35a56.73,56.73,0,0,0,4.28,7.52c8.26,12.32,21.13,22.74,29.89,30.28V93.42C170.09,60.45,171.34,54,163.06,46Z" transform="translate(-50.11 -27.77)"/><circle class="cls-4" cx="84.83" cy="19.19" r="3.89"/><path class="cls-1" d="M100.61,62.11h5.12c0-11-3.9-16.66-11.29-21.43H94.07V67.41C98,67.33,99.15,65.34,100.61,62.11Z" transform="translate(-50.11 -27.77)"/><path class="cls-1" d="M105.74,62.11h0c0,0.07,0,.14,0,0.21V62.11Z" transform="translate(-50.11 -27.77)"/><path class="cls-5" d="M89.41,83.83v0Z" transform="translate(-50.11 -27.77)"/><path class="cls-5" d="M89.41,83.83v0l0,0.28Z" transform="translate(-50.11 -27.77)"/><path class="cls-5" d="M89.4,83.74h0Z" transform="translate(-50.11 -27.77)"/><path class="cls-5" d="M89.52,84.5h0Z" transform="translate(-50.11 -27.77)"/><path class="cls-5" d="M89.47,84.18l0.05,0.32Z" transform="translate(-50.11 -27.77)"/><path class="cls-5" d="M89.46,84.16v0Z" transform="translate(-50.11 -27.77)"/><path class="cls-5" d="M89.42,83.87c-2.27-14.61-23.29-31-6.18-47.11l-26.83-9c-1.49,3.56-.22,5.35,4.5,9H50.11c0,5.1,4.58,7.8,8.79,9.24-8.28,8-7,14.43-7,47.4V142c8.74-7.52,21.56-17.91,29.83-30.19a57,57,0,0,0,4.3-7.51C89,97.89,90.53,91,89.42,83.87Z" transform="translate(-50.11 -27.77)"/><circle class="cls-4" cx="36.91" cy="19.19" r="3.89"/></svg>