<?xml version="1.0" encoding="UTF-8"?>
<svg width="14px" height="14px" viewBox="0 0 14 14" version="1.1" xmlns="http://www.w3.org/2000/svg" xmlns:xlink="http://www.w3.org/1999/xlink">
    <!-- Generator: sketchtool 49.1 (51147) - http://www.bohemiancoding.com/sketch -->
    <title>8DF7E259-C3A9-4646-A93B-43ACF5623A74</title>
    <desc>Created with sketchtool.</desc>
    <defs>
        <polygon id="path-1" points="0 1.45199915e-05 7.74423746 1.45199915e-05 7.74423746 14.4089281 0 14.4089281"></polygon>
    </defs>
    <g id="Interface" stroke="none" stroke-width="1" fill="none" fill-rule="evenodd">
        <g id="Pairing-Board---Board-Hover" transform="translate(-510.000000, -294.000000)">
            <g id="Hover" transform="translate(387.000000, 279.000000)">
                <g id="tag" transform="translate(131.131728, 21.131728) scale(1, -1) rotate(135.000000) translate(-131.131728, -21.131728) translate(127.131728, 13.631728)">
                    <mask id="mask-2" fill="white">
                        <use xlink:href="#path-1"></use>
                    </mask>
                    <g id="Clip-2"></g>
                    <path d="M3.86651401,4.50248964 C3.35105432,4.50248964 2.93273336,4.08634669 2.93273336,3.57074179 C2.93200736,3.05528209 3.34960232,2.63696113 3.86448122,2.63696113 C4.37921491,2.63594474 4.79753587,3.05310409 4.79826187,3.56870899 C4.79884267,4.08387829 4.38124771,4.50118284 3.86651401,4.50248964 M7.74436814,14.0627424 L7.73086455,3.32651553 C7.73086455,3.22792479 7.68672378,3.13107645 7.61078422,3.06660768 L4.0673255,0.0795550334 C3.93998517,-0.0274573039 3.75398408,-0.0261505047 3.62809575,0.0810070325 L0.11890421,3.07604568 C0.0432550547,3.14036924 -1.45199915e-05,3.23489438 -1.45199915e-05,3.33421113 L0.0133438722,14.071164 C0.0133438722,14.160462 0.0496438509,14.2474367 0.112660614,14.3103083 C0.176258177,14.3733251 0.263813725,14.4090442 0.352530873,14.4090442 L7.40590714,14.4025102 C7.49622149,14.4025102 7.58217984,14.3670815 7.6456322,14.3020319 C7.70922976,14.2385795 7.74436814,14.1536376 7.74436814,14.0627424" id="Fill-1" fill="#D4F338" mask="url(#mask-2)"></path>
                </g>
            </g>
        </g>
    </g>
</svg>