<?xml version="1.0" encoding="UTF-8" standalone="no"?>
<svg width="80px" height="80px" viewBox="0 0 80 80" version="1.1" xmlns="http://www.w3.org/2000/svg" xmlns:xlink="http://www.w3.org/1999/xlink">
    <!-- Generator: sketchtool 3.6.1 (26313) - http://www.bohemiancoding.com/sketch -->
    <title>Group 2 Copy</title>
    <desc>Created with sketchtool.</desc>
    <defs></defs>
    <g id="Visual-Design" stroke="none" stroke-width="1" fill="none" fill-rule="evenodd">
        <g id="Pairing-Board---Add-Parrit" transform="translate(-50.000000, -872.000000)">
            <g id="Group-2-Copy" transform="translate(50.000000, 872.000000)">
                <g id="Delete">
                    <g id="Group-6">
                        <rect id="Rectangle-1-Copy-8" stroke="#8E9196" stroke-dasharray="5" x="0" y="0" width="80" height="80" rx="4"></rect>
                        <path id="Shape" fill="#D8D8D8" d="M57.440393,36.1892072 L57.440393,36.4192072 L57.440393,36.1892072 L57.440393,36.1892072 L57.440393,36.1892072 Z"></path>
                        <path d="M50.4371812,23.3337775 L50.2044209,23.3337775 L50.2044209,39.3764157 C52.6695636,39.3284477 53.4207444,38.1345769 54.3517854,36.1785476 L57.5945589,36.1785476 C57.5628188,29.5802798 55.1241262,26.1958694 50.4371812,23.3337775 L50.4371812,23.3337775 Z" id="Shape" fill="#F3736C"></path>
                        <path d="M35.5775553,49.6522318 L38.8573588,49.6522318 L38.8573588,46.3477682 C38.8602673,43.6518215 41.0271811,41.4662317 43.703004,41.4603598 L43.9357642,41.4603598 C40.1639902,34.8407728 35.6040053,27.8481013 43.3379936,20.9726849 C41.7509919,20.4770153 26.3359154,15.5842771 26.3359154,15.5842771 C25.3942944,17.7161892 26.1983752,18.7821452 29.1872284,20.9886742 L22.3472511,20.9886742 C22.3472511,24.047968 25.2514642,25.6682212 27.912337,26.5316456 C23.0137918,30.9980013 23.3788022,34.6755496 23.4475723,51.2351765 C25.6685138,53.1798898 28.1897586,54.7461374 30.9117703,55.8720853 C30.4903194,54.398071 30.7825872,52.8101514 31.7005823,51.5863928 C32.6185773,50.3626342 34.0550596,49.6459957 35.5775553,49.6522318 L35.5775553,49.6522318 Z" id="Shape" fill="#89D4E5"></path>
                        <ellipse id="Oval" fill="#000000" cx="45.7396561" cy="27.1072618" rx="2.46514264" ry="2.3344437"></ellipse>
                        <path d="M47.2578878,49.2471686 L47.3213678,49.6469021 L47.2578878,49.2471686 Z" id="Shape" fill="#D8D8D8"></path>
                        <path d="M51.8337427,51.7841439 L46.4379369,51.7841439 L46.4379369,46.3477682 C46.3735792,44.8744932 45.1693449,43.7134291 43.705649,43.7134291 C42.241953,43.7134291 41.0377188,44.8744932 40.973361,46.3477682 L40.973361,51.7841439 L35.5775553,51.7841439 C34.5727229,51.7395868 33.6247019,52.2543107 33.1090832,53.1243901 C32.5934645,53.9944695 32.5934645,55.0794812 33.1090832,55.9495606 C33.6247019,56.81964 34.5727229,57.3343639 35.5775553,57.2898068 L40.973361,57.2898068 L40.973361,62.7261825 C41.0377188,64.1994575 42.241953,65.3605216 43.705649,65.3605216 C45.1693449,65.3605216 46.3735792,64.1994575 46.4379369,62.7261825 L46.4379369,57.2951366 L51.8337427,57.2951366 C53.3442044,57.2951366 54.5686756,56.0614588 54.5686756,54.5396402 C54.5686756,53.0178216 53.3442044,51.7841439 51.8337427,51.7841439 L51.8337427,51.7841439 Z" id="Shape" fill="#BDD63E"></path>
                    </g>
                </g>
                <g id="add-parrit" transform="translate(22.278481, 15.189873)"></g>
            </g>
        </g>
    </g>
</svg>