<?xml version="1.0" encoding="UTF-8" standalone="no"?>
<svg width="80px" height="80px" viewBox="0 0 80 80" version="1.1" xmlns="http://www.w3.org/2000/svg" xmlns:xlink="http://www.w3.org/1999/xlink">
    <!-- Generator: sketchtool 3.6.1 (26313) - http://www.bohemiancoding.com/sketch -->
    <title>Group 4</title>
    <desc>Created with sketchtool.</desc>
    <defs></defs>
    <g id="Visual-Design" stroke="none" stroke-width="1" fill="none" fill-rule="evenodd">
        <g id="Pairing-Board---Trash-Hover" transform="translate(-156.000000, -872.000000)">
            <g id="Group-4" transform="translate(156.000000, 872.000000)">
                <g id="Delete">
                    <rect id="Rectangle-1-Copy-8" stroke="#8E9196" stroke-dasharray="5" x="0" y="0" width="80" height="80" rx="4"></rect>
                    <g id="noun_3058_cc" transform="translate(24.000000, 20.266667)" fill="#89D4E5">
                        <g id="Group">
                            <path d="M29.1844267,0.503186532 L22.1841067,1.68807003 L19.7909333,0.0650989899 L10.7639467,1.53658182 L9.54837333,3.71760269 L1.97802667,4.94465724 C0.826453333,5.13012795 0.0541866667,6.17826263 0.24704,7.28371717 C0.44672,8.38671515 1.53685333,9.12982626 2.68629333,8.94026128 L29.89312,4.50042828 C31.04512,4.3108633 31.8178133,3.26477576 31.6245333,2.16177778 C31.4244267,1.05673266 30.3342933,0.315668687 29.1844267,0.503186532 L29.1844267,0.503186532 Z" id="Shape"></path>
                            <path d="M0.62208,9.24323771 L4.3776,40.3298478 L27.6181333,40.3298478 L31.1394133,9.24323771 L0.62208,9.24323771 L0.62208,9.24323771 Z M9.06581333,37.0249481 C8.22528,37.1006923 7.4816,36.5115259 7.40053333,35.7070007 L5.25738667,14.1801158 C5.17802667,13.376 5.79242667,12.6603205 6.6304,12.5825293 C7.47050667,12.504738 8.21418667,13.0959515 8.29568,13.9021145 L10.4384,35.4294088 C10.52032,36.2335246 9.90378667,36.949204 9.06581333,37.0249481 L9.06581333,37.0249481 Z M15.8378667,37.0814492 C14.9952,37.0834963 14.3108267,36.4308687 14.3086933,35.623068 L14.2429867,13.9971017 C14.23872,13.1888916 14.92096,12.5297131 15.7632,12.5297131 C16.60544,12.5256189 17.29024,13.1798842 17.2945067,13.9885037 L17.3602133,35.6140606 C17.3627733,36.4226801 16.6826667,37.0789926 15.8378667,37.0814492 L15.8378667,37.0814492 Z M24.5384533,35.6779313 C24.4753067,36.4840943 23.7444267,37.088 22.9038933,37.0290424 C22.0637867,36.9700848 21.43232,36.2670976 21.4958933,35.4609347 L23.1586133,13.8939259 C23.22176,13.0898101 23.95264,12.4834478 24.79232,12.5424054 C25.6328533,12.601363 26.2647467,13.3043502 26.2011733,14.1105131 L24.5384533,35.6779313 L24.5384533,35.6779313 Z" id="Shape"></path>
                        </g>
                    </g>
                </g>
            </g>
        </g>
    </g>
</svg>