<?xml version="1.0" encoding="UTF-8" standalone="no"?>
<svg width="40px" height="40px" viewBox="0 0 40 40" version="1.1" xmlns="http://www.w3.org/2000/svg" xmlns:xlink="http://www.w3.org/1999/xlink">
    <!-- Generator: sketchtool 3.6.1 (26313) - http://www.bohemiancoding.com/sketch -->
    <title>history</title>
    <desc>Created with sketchtool.</desc>
    <defs></defs>
    <g id="Visual-Design" stroke="none" stroke-width="1" fill="none" fill-rule="evenodd">
        <g id="Pairing-Board---No-History" transform="translate(-1252.000000, -114.000000)">
            <g id="History" transform="translate(1108.000000, 0.000000)">
                <g id="history" transform="translate(144.000000, 114.000000)">
                    <path d="M20.0918919,39.5675676 C9.28502273,39.5675676 0.524324324,30.8068692 0.524324324,20 C0.524324324,9.19313084 9.28502273,0.432432432 20.0918919,0.432432432 C30.8987611,0.432432432 39.6594595,9.19313084 39.6594595,20 C39.6475434,30.8019295 30.8938214,39.5556515 20.0918919,39.5675676 L20.0918919,39.5675676 Z" id="Shape" fill="#F7F4A9"></path>
                    <path d="M25.227027,26.7027027 C24.8709104,26.7039387 24.5288182,26.5639919 24.2756757,26.3135135 L18.8702703,20.9621622 C18.6136761,20.7078092 18.4696205,20.3612971 18.4702703,20 L18.4702703,8.59459459 C18.4702703,7.84826385 19.0752909,7.24324324 19.8216216,7.24324324 C20.5679524,7.24324324 21.172973,7.84826385 21.172973,8.59459459 L21.172973,19.4594595 L26.1783784,24.4162162 C26.5501176,24.8038469 26.657025,25.3748225 26.4507081,25.8706863 C26.2443913,26.3665501 25.7640156,26.6931715 25.227027,26.7027027 L25.227027,26.7027027 Z" id="Shape" fill="#58595B"></path>
                </g>
            </g>
        </g>
    </g>
</svg>