<?xml version="1.0" encoding="UTF-8" standalone="no"?>
<svg width="20px" height="20px" viewBox="0 0 20 20" version="1.1" xmlns="http://www.w3.org/2000/svg" xmlns:xlink="http://www.w3.org/1999/xlink">
    <!-- Generator: sketchtool 3.6.1 (26313) - http://www.bohemiancoding.com/sketch -->
    <title>history</title>
    <desc>Created with sketchtool.</desc>
    <defs></defs>
    <g id="Visual-Design" stroke="none" stroke-width="1" fill="none" fill-rule="evenodd">
        <g id="Pairing-Board---History" transform="translate(-1138.000000, -114.000000)">
            <g id="History" transform="translate(1108.000000, 0.000000)">
                <g id="history" transform="translate(30.000000, 114.000000)">
                    <g id="Shape">
                        <path d="M10.0459459,19.7837838 C4.64251137,19.7837838 0.262162162,15.4034346 0.262162162,10 C0.262162162,4.59656542 4.64251137,0.216216216 10.0459459,0.216216216 C15.4493805,0.216216216 19.8297297,4.59656542 19.8297297,10 C19.8237717,15.4009648 15.4469107,19.7778257 10.0459459,19.7837838 L10.0459459,19.7837838 Z" fill="#F7F4A9"></path>
                        <path d="M12.6135135,13.3513514 C12.4354552,13.3519694 12.2644091,13.281996 12.1378378,13.1567568 L9.43513514,10.4810811 C9.30683803,10.3539046 9.23481025,10.1806486 9.23513514,10 L9.23513514,4.2972973 C9.23513514,3.92413193 9.53764544,3.62162162 9.91081081,3.62162162 C10.2839762,3.62162162 10.5864865,3.92413193 10.5864865,4.2972973 L10.5864865,9.72972973 L13.0891892,12.2081081 C13.2750588,12.4019235 13.3285125,12.6874112 13.2253541,12.9353432 C13.1221956,13.1832751 12.8820078,13.3465858 12.6135135,13.3513514 L12.6135135,13.3513514 Z" fill="#58595B"></path>
                    </g>
                </g>
            </g>
        </g>
    </g>
</svg>