<?xml version="1.0" encoding="UTF-8" standalone="no"?>
<svg width="54px" height="75px" viewBox="0 0 54 75" version="1.1" xmlns="http://www.w3.org/2000/svg" xmlns:xlink="http://www.w3.org/1999/xlink">
    <!-- Generator: sketchtool 3.6.1 (26313) - http://www.bohemiancoding.com/sketch -->
    <title>Shape</title>
    <desc>Created with sketchtool.</desc>
    <defs></defs>
    <g id="Wireframes" stroke="none" stroke-width="1" fill="none" fill-rule="evenodd">
        <g id="Pairing-Board---Login" transform="translate(-693.000000, -368.000000)" fill="#89D4E5">
            <path d="M737.732143,397.107143 L737.732143,386.303571 C737.732143,376.214286 729.517857,368 719.428571,368 C709.339286,368 701.214286,376.214286 701.214286,386.303571 L701.214286,397.285714 C696.125,402.107143 693,408.982143 693,416.482143 C693,431.125 704.875,443 719.517857,443 C734.160714,443 746.035714,431.125 746.035714,416.482143 C746.035714,408.892857 742.910714,402.017857 737.732143,397.107143 L737.732143,397.107143 Z M723.803571,422.732143 C723.803571,423.892857 722.910714,424.785714 721.75,424.785714 L717.464286,424.785714 C716.303571,424.785714 715.410714,423.892857 715.410714,422.732143 L715.410714,410.232143 C715.410714,409.071429 716.303571,408.178571 717.464286,408.178571 L721.75,408.178571 C722.910714,408.178571 723.803571,409.071429 723.803571,410.232143 L723.803571,422.732143 L723.803571,422.732143 Z M729.339286,391.839286 C726.303571,390.589286 723,389.964286 719.517857,389.964286 C715.946429,389.964286 712.642857,390.678571 709.517857,391.928571 L709.517857,386.392857 C709.517857,380.946429 713.982143,376.482143 719.428571,376.482143 C724.875,376.482143 729.339286,380.946429 729.339286,386.392857 L729.339286,391.839286 L729.339286,391.839286 Z" id="Shape"></path>
        </g>
    </g>
</svg>