<?xml version="1.0" encoding="UTF-8" standalone="no"?>
<svg width="21px" height="22px" viewBox="0 0 21 22" version="1.1" xmlns="http://www.w3.org/2000/svg" xmlns:xlink="http://www.w3.org/1999/xlink">
    <!-- Generator: sketchtool 3.6.1 (26313) - http://www.bohemiancoding.com/sketch -->
    <title>Shape</title>
    <desc>Created with sketchtool.</desc>
    <defs></defs>
    <g id="Responsive" stroke="none" stroke-width="1" fill="none" fill-rule="evenodd">
        <g id="Pairing-Board---Mobile" transform="translate(-292.000000, -36.000000)" fill="#8E9196">
            <path d="M308.405101,41.2386106 L307.228016,42.4156955 L309.136825,44.3245043 L304.486756,44.3245043 L304.486756,45.9894052 L309.136825,45.9894052 L307.228016,47.898214 L308.405101,49.0752989 L312.323445,45.1569547 L308.405101,41.2386106 L308.405101,41.2386106 Z M304.486756,52.6490086 L302.821856,52.6490086 L302.821856,39.5789819 L297.557439,37.6649009 L304.486756,37.6649009 L304.486756,42.6596035 L306.151657,42.6596035 L306.151657,36 L292,36 L292,54.0647293 L302.821856,58 L302.821856,54.3139095 L306.151657,54.3139095 L306.151657,47.654306 L304.486756,47.654306 L304.486756,52.6490086 L304.486756,52.6490086 Z" id="Shape"></path>
        </g>
    </g>
</svg>