<?xml version="1.0" encoding="UTF-8" standalone="no"?>
<svg width="13px" height="13px" viewBox="0 0 13 13" version="1.1" xmlns="http://www.w3.org/2000/svg" xmlns:xlink="http://www.w3.org/1999/xlink">
    <!-- Generator: sketchtool 3.6.1 (26313) - http://www.bohemiancoding.com/sketch -->
    <title>edit</title>
    <desc>Created with sketchtool.</desc>
    <defs></defs>
    <g id="Visual-Design" stroke="none" stroke-width="1" fill="none" fill-rule="evenodd">
        <g id="Pairing-Board---Board-Hover" transform="translate(-487.000000, -294.000000)" fill="#BDD63E">
            <g id="edit" transform="translate(487.000000, 294.000000)">
                <path d="M9.30512449,0.620345473 C8.95345121,0.800303764 8.63722805,1.04752871 8.37285572,1.34919815 L7.86590773,1.9233098 L9.19986834,3.38101515 C9.94095757,4.17714653 10.660566,4.81629427 10.8087838,4.81629427 C11.1889948,4.81629427 12.1642253,3.53575618 12.1642253,3.02219537 C12.1642253,2.50863456 10.6412332,0.701079924 10.0891754,0.56876513 C9.82840736,0.508262363 9.55655519,0.526146697 9.30512449,0.620345473 L9.30512449,0.620345473 Z" id="Shape"></path>
                <path d="M4.69103851,5.21548127 L2.42695721,7.58144919 L3.84469313,9.06158078 L5.26242905,10.5417124 L7.33747889,8.52335111 C8.50174081,7.41773766 9.53926573,6.31436684 9.64452188,6.06992087 C9.85933035,5.69540272 9.68748358,5.45095675 8.5447025,4.23545475 C7.80361327,3.4617496 7.14844743,2.82035924 7.08400489,2.82035924 C7.01956235,2.82035924 5.94122382,3.89009071 4.69103851,5.21548127 L4.69103851,5.21548127 Z" id="Shape"></path>
                <path d="M0.626862215,10.8265256 C-0.167929132,13.338264 -0.232371674,13.2709853 2.45273423,12.3290834 L4.2141637,11.723575 L2.75346609,10.198591 L1.29276848,8.69603313 L0.626862215,10.8265256 Z" id="Shape"></path>
            </g>
        </g>
    </g>
</svg>